/* XPM */
static char *a0f174e548a14cd4b976dd4f8f3a001629caEWMqdCc1A1u3[] = {
/* columns rows colors chars-per-pixel */
"32 32 7 1 ",
"  c None",
". c black",
"X c #252726",
"o c #515453",
"O c #139981",
"+ c #19B598",
"@ c white",
/* pixels */
"                                ",
"                                ",
"            ooXXoooooo          ",
"            ooXXoooooo          ",
"            ooXXoo..oo          ",
"            ooXXoo..oo          ",
"            ooXXoooooo          ",
"            ooXXoooooo          ",
"          ..........            ",
"          ..........            ",
"      ....++++++++++....        ",
"      ....++++++++++....        ",
"      ..OOOOOOOOOOOOOO..        ",
"      ..OOOOOOOOOOOOOO..        ",
"      ..@@@@@@OO@@@@@@..        ",
"      ..@@@@@@OO@@@@@@..        ",
"      ..@@OO@@OOOOOO@@..        ",
"      ..@@OO@@OOOOOO@@..        ",
"      ..@@OO@@OO@@@@@@..        ",
"      ..@@OO@@OO@@@@@@..        ",
"      ..@@OO@@OO@@OOOO..        ",
"      ..@@OO@@OO@@OOOO..        ",
"      ..@@@@@@OO@@@@@@..        ",
"      ..@@@@@@OO@@@@@@..        ",
"      ..OOOOOOOOOOOOOO..        ",
"      ..OOOOOOOOOOOOOO..        ",
"      ..++++++++++++++..        ",
"      ..++++++++++++++..        ",
"        ..............          ",
"        ..............          ",
"                                ",
"                                "
};
