/* XPM */
static char *_05b331e77ee4bb6d425beeab21275a8IxQdPYcDxxBKoynG[] = {
/* columns rows colors chars-per-pixel */
"48 48 9 1 ",
"  c None",
". c black",
"X c #2D2B2A",
"o c #514D4C",
"O c #DE691B",
"+ c #F77622",
"@ c #FEE761",
"# c #707F9D",
"$ c #8F9BB3",
/* pixels */
"                                                ",
"                                                ",
"                                                ",
"                     ............               ",
"                     ............               ",
"                     ............               ",
"                  ...++++++++++++...            ",
"                  ...++++++++++++...            ",
"                  ...++++++++++++...            ",
"               ...++++++######$$$$$$...         ",
"               ...++++++######$$$$$$...         ",
"               ...++++++######$$$$$$...         ",
"               ...+++############$$$...         ",
"               ...+++############$$$...         ",
"               ...+++############$$$...         ",
"            ...++++++###############...         ",
"            ...++++++###############...         ",
"            ...++++++###############...         ",
"            ...++++++###############...         ",
"            ...++++++###############...         ",
"            ...++++++###############...         ",
"            XXX...+++###oooXXX###oooXXX         ",
"            XXX...+++###oooXXX###oooXXX         ",
"            XXX...+++###oooXXX###oooXXX         ",
"         XXX      ...###XXXooo###XXXooo         ",
"         XXX      ...###XXXooo###XXXooo         ",
"         XXX      ...###XXXooo###XXXooo         ",
"         XXX   ...+++...............            ",
"         XXX   ...+++...............            ",
"         XXX   ...+++...............            ",
"            ...OOO+++...OOOOOOOOO+++...         ",
"            ...OOO+++...OOOOOOOOO+++...         ",
"            ...OOO+++...OOOOOOOOO+++...         ",
"            ...OOOOOO...+++OOO@@@+++...         ",
"            ...OOOOOO...+++OOO@@@+++...         ",
"            ...OOOOOO...+++OOO@@@+++...         ",
"               ......OOO+++OOO+++OOO...         ",
"               ......OOO+++OOO+++OOO...         ",
"               ......OOO+++OOO+++OOO...         ",
"                  ...OOO+++...+++...            ",
"                  ...OOO+++...+++...            ",
"                  ...OOO+++...+++...            ",
"                     ......   +++...            ",
"                     ......   +++...            ",
"                     ......   +++...            ",
"                              ...               ",
"                              ...               ",
"                              ...               "
};
