/* XPM */
static char *_727e4e4e00841928db4c3cb9a722e49r8ytKnwc8YhN0ttr[] = {
/* columns rows colors chars-per-pixel */
"48 48 9 1 ",
"  c none",
". c #000000",
"X c #2D2B2A",
"o c #514D4C",
"O c #DE691B",
"+ c #F77622",
"@ c #FEE761",
"# c #707F9D",
"$ c #8F9BB3",
/* pixels */
"                                                ",
"                                                ",
"                                                ",
"                     ............               ",
"                     ............               ",
"                     ............               ",
"                  ...++++++++++++...            ",
"                  ...++++++++++++...            ",
"                  ...++++++++++++...            ",
"               ...++++++######$$$$$$...         ",
"               ...++++++######$$$$$$...         ",
"               ...++++++######$$$$$$...         ",
"               ...+++############$$$...         ",
"               ...+++############$$$...         ",
"               ...+++############$$$...         ",
"            ...++++++###############...         ",
"            ...++++++###############...         ",
"            ...++++++###############...         ",
"            ...++++++###############...         ",
"            ...++++++###############...         ",
"            ...++++++###############...         ",
"            XXX...+++###oooXXX###oooXXX         ",
"            XXX...+++###oooXXX###oooXXX         ",
"            XXX...+++###oooXXX###oooXXX         ",
"         XXX      ...###XXXooo###XXXooo         ",
"         XXX      ...###XXXooo###XXXooo         ",
"         XXX      ...###XXXooo###XXXooo         ",
"         XXX   ...OOO...............            ",
"         XXX   ...OOO...............            ",
"         XXX   ...OOO...............            ",
"            ...OOO++++++OOOOOOOOO+++...         ",
"            ...OOO++++++OOOOOOOOO+++...         ",
"            ...OOO++++++OOOOOOOOO+++...         ",
"            ...OOO+++...+++OOO@@@+++...         ",
"            ...OOO+++...+++OOO@@@+++...         ",
"            ...OOO+++...+++OOO@@@+++...         ",
"            ...OOOOOO...+++OOO+++OOO...         ",
"            ...OOOOOO...+++OOO+++OOO...         ",
"            ...OOOOOO...+++OOO+++OOO...         ",
"               ......OOO+++...+++...            ",
"               ......OOO+++...+++...            ",
"               ......OOO+++...+++...            ",
"                  ...OOO+++...+++...            ",
"                  ...OOO+++...+++...            ",
"                  ...OOO+++...+++...            ",
"                     ......   ...               ",
"                     ......   ...               ",
"                     ......   ...               "
};
