/* XPM */
static char *_b2c70ca34e2410d8802ac075793a486rr4WWFOSlMnqE5ub[] = {
/* columns rows colors chars-per-pixel */
"48 48 9 1 ",
"  c None",
". c black",
"X c #2D2B2A",
"o c #514D4C",
"O c #DE691B",
"+ c #F77622",
"@ c #FEE761",
"# c #707F9D",
"$ c #8F9BB3",
/* pixels */
"                                                ",
"                                                ",
"                                                ",
"                     ............               ",
"                     ............               ",
"                     ............               ",
"                  ...+++######$$$...            ",
"                  ...+++######$$$...            ",
"                  ...+++######$$$...            ",
"               ...+++#########$$$$$$...         ",
"               ...+++#########$$$$$$...         ",
"               ...+++#########$$$$$$...         ",
"               ...+++###############...         ",
"               ...+++###############...         ",
"               ...+++###############...         ",
"            ...++++++###############...         ",
"            ...++++++###############...         ",
"            ...++++++###############...         ",
"            ...++++++###oooXXX###oooXXX         ",
"            ...++++++###oooXXX###oooXXX         ",
"            ...++++++###oooXXX###oooXXX         ",
"            XXX...+++###XXXooo###XXXooo         ",
"            XXX...+++###XXXooo###XXXooo         ",
"            XXX...+++###XXXooo###XXXooo         ",
"         XXX      ...+++++++++++++++...         ",
"         XXX      ...+++++++++++++++...         ",
"         XXX      ...+++++++++++++++...         ",
"         XXX   ...OOO...............            ",
"         XXX   ...OOO...............            ",
"         XXX   ...OOO...............            ",
"            ...OOO++++++OOOOOOOOO+++...         ",
"            ...OOO++++++OOOOOOOOO+++...         ",
"            ...OOO++++++OOOOOOOOO+++...         ",
"            ...OOO+++...+++OOO@@@+++...         ",
"            ...OOO+++...+++OOO@@@+++...         ",
"            ...OOO+++...+++OOO@@@+++...         ",
"            ...OOOOOO...+++OOO+++OOO...         ",
"            ...OOOOOO...+++OOO+++OOO...         ",
"            ...OOOOOO...+++OOO+++OOO...         ",
"               ......OOO+++...+++...            ",
"               ......OOO+++...+++...            ",
"               ......OOO+++...+++...            ",
"                  ...OOO+++...+++...            ",
"                  ...OOO+++...+++...            ",
"                  ...OOO+++...+++...            ",
"                     ......   ...               ",
"                     ......   ...               ",
"                     ......   ...               "
};
