/* XPM */
static char *_76b74515acb4d168ecbce836be3f1347garrnkn105184QG[] = {
/* columns rows colors chars-per-pixel */
"48 48 8 1 ",
"  c None",
". c black",
"X c #2D2B2A",
"o c #DE691B",
"O c #F77622",
"+ c #FF0044",
"@ c #FEE761",
"# c #EDE2CF",
/* pixels */
"                                                ",
"                                                ",
"                                                ",
"                                                ",
"                                                ",
"                                                ",
"                                                ",
"                                                ",
"                                                ",
"                     ...............            ",
"                     ...............            ",
"                     ...............            ",
"                  ...############+++...         ",
"                  ...############+++...         ",
"                  ...############+++...         ",
"               ...##################+++         ",
"               ...##################+++         ",
"               ...##################+++         ",
"               ...######......###......         ",
"               ...######......###......         ",
"               ...######......###......         ",
"               ...+++###+++...###......         ",
"               ...+++###+++...###......         ",
"               ...+++###+++...###......         ",
"               ...###############+++###         ",
"               ...###############+++###         ",
"               ...###############+++###         ",
"                  ......######...+++...         ",
"                  ......######...+++...         ",
"                  ......######...+++...         ",
"               XXX      ......   ...            ",
"               XXX      ......   ...            ",
"               XXX      ......   ...            ",
"               ...ooo...............            ",
"               ...ooo...............            ",
"               ...ooo...............            ",
"            ...oooOOOOOOoooooooooOOO...         ",
"            ...oooOOOOOOoooooooooOOO...         ",
"            ...oooOOOOOOoooooooooOOO...         ",
"            ...+++OOO...OOOooo@@@OOO...         ",
"            ...+++OOO...OOOooo@@@OOO...         ",
"            ...+++OOO...OOOooo@@@OOO...         ",
"            ...+++......OOOooo+++ooo+++         ",
"            ...+++......OOOooo+++ooo+++         ",
"            ...+++......OOOooo+++ooo+++         ",
"         ++++++...ooooooOOO...+++...++++++      ",
"         ++++++...ooooooOOO...+++...++++++      ",
"         ++++++...ooooooOOO...+++...++++++      "
};
