/* XPM */
static char *_3e91bf32c2d49d2d8bcb357659180afCmoMIPZffe39GsVQ[] = {
/* columns rows colors chars-per-pixel */
"48 48 9 1 ",
"  c None",
". c black",
"X c #2D2B2A",
"o c #514D4C",
"O c #DE691B",
"+ c #F77622",
"@ c #FEE761",
"# c #707F9D",
"$ c #8F9BB3",
/* pixels */
"                                                ",
"                                                ",
"                                                ",
"                     ............               ",
"                     ............               ",
"                     ............               ",
"                  ...++++++++++++...            ",
"                  ...++++++++++++...            ",
"                  ...++++++++++++...            ",
"               ...++++++######$$$$$$...         ",
"               ...++++++######$$$$$$...         ",
"               ...++++++######$$$$$$...         ",
"               ...+++############$$$...         ",
"               ...+++############$$$...         ",
"               ...+++############$$$...         ",
"            ...++++++###############...         ",
"            ...++++++###############...         ",
"            ...++++++###############...         ",
"            ...++++++###############...         ",
"            ...++++++###############...         ",
"            ...++++++###############...         ",
"            XXX...+++###oooXXX###oooXXX         ",
"            XXX...+++###oooXXX###oooXXX         ",
"            XXX...+++###oooXXX###oooXXX         ",
"         XXX      ...###XXXooo###XXXooo         ",
"         XXX      ...###XXXooo###XXXooo         ",
"         XXX      ...###XXXooo###XXXooo         ",
"         XXX   ...OOO..................         ",
"         XXX   ...OOO..................         ",
"         XXX   ...OOO..................         ",
"            ...OOO++++++OOOOOOOOO+++...         ",
"            ...OOO++++++OOOOOOOOO+++...         ",
"            ...OOO++++++OOOOOOOOO+++...         ",
"            ...OOO+++...+++OOO@@@OOO...         ",
"            ...OOO+++...+++OOO@@@OOO...         ",
"            ...OOO+++...+++OOO@@@OOO...         ",
"            ...OOOOOO...+++OOO+++...            ",
"            ...OOOOOO...+++OOO+++...            ",
"            ...OOOOOO...+++OOO+++...            ",
"               ......OOO+++...+++...            ",
"               ......OOO+++...+++...            ",
"               ......OOO+++...+++...            ",
"                  ...OOO+++   ...               ",
"                  ...OOO+++   ...               ",
"                  ...OOO+++   ...               ",
"                     ......                     ",
"                     ......                     ",
"                     ......                     "
};
