/* XPM */
static char *_0d78e329daf493d8afa99eaf245b332Tu2GgUQaVxGzYQiC[] = {
/* columns rows colors chars-per-pixel */
"64 64 6 1 ",
"  c None",
". c #242323",
"X c #373636",
"o c #4B4A4A",
"O c #5D5B5B",
"+ c #635F5F",
/* pixels */
"                ............................                    ",
"                ............................                    ",
"                ............................                    ",
"                ............................                    ",
"            ....oooooooooooooooooooooooooooo........            ",
"            ....oooooooooooooooooooooooooooo........            ",
"            ....oooooooooooooooooooooooooooo........            ",
"            ....oooooooooooooooooooooooooooo........            ",
"        ....oooooooooooooooooooooooooooooooooooooooo....        ",
"        ....oooooooooooooooooooooooooooooooooooooooo....        ",
"        ....oooooooooooooooooooooooooooooooooooooooo....        ",
"        ....oooooooooooooooooooooooooooooooooooooooo....        ",
"        ....oooo++++XXXXoooo++++XXXXoooooooooooooooo....        ",
"        ....oooo++++XXXXoooo++++XXXXoooooooooooooooo....        ",
"        ....oooo++++XXXXoooo++++XXXXoooooooooooooooo....        ",
"        ....oooo++++XXXXoooo++++XXXXoooooooooooooooo....        ",
"    ....oooooooooooooooooooo++++XXXXooooooooOOOOXXXXoooo....    ",
"    ....oooooooooooooooooooo++++XXXXooooooooOOOOXXXXoooo....    ",
"    ....oooooooooooooooooooo++++XXXXooooooooOOOOXXXXoooo....    ",
"    ....oooooooooooooooooooo++++XXXXooooooooOOOOXXXXoooo....    ",
"    ....oooooooooooooooooooooooooooooooooooooooooooooooo....    ",
"    ....oooooooooooooooooooooooooooooooooooooooooooooooo....    ",
"    ....oooooooooooooooooooooooooooooooooooooooooooooooo....    ",
"    ....oooooooooooooooooooooooooooooooooooooooooooooooo....    ",
"....oooooooo++++++++XXXXoooooooooooo++++++++XXXXoooooooo....    ",
"....oooooooo++++++++XXXXoooooooooooo++++++++XXXXoooooooo....    ",
"....oooooooo++++++++XXXXoooooooooooo++++++++XXXXoooooooo....    ",
"....oooooooo++++++++XXXXoooooooooooo++++++++XXXXoooooooo....    ",
"....oooooooo++++++++XXXXooooooooooooXXXXXXXXoooooooooooo....    ",
"....oooooooo++++++++XXXXooooooooooooXXXXXXXXoooooooooooo....    ",
"....oooooooo++++++++XXXXooooooooooooXXXXXXXXoooooooooooo....    ",
"....oooooooo++++++++XXXXooooooooooooXXXXXXXXoooooooooooo....    ",
"....ooooooooXXXXXXXXoooooooooooooooooooooooooooooooooooooooo....",
"....ooooooooXXXXXXXXoooooooooooooooooooooooooooooooooooooooo....",
"....ooooooooXXXXXXXXoooooooooooooooooooooooooooooooooooooooo....",
"....ooooooooXXXXXXXXoooooooooooooooooooooooooooooooooooooooo....",
"....ooooooooooooooooooooOOOOXXXXooooOOOOOOOOXXXXoooooooooooo....",
"....ooooooooooooooooooooOOOOXXXXooooOOOOOOOOXXXXoooooooooooo....",
"....ooooooooooooooooooooOOOOXXXXooooOOOOOOOOXXXXoooooooooooo....",
"....ooooooooooooooooooooOOOOXXXXooooOOOOOOOOXXXXoooooooooooo....",
"    ....ooooooooooooooooooooooooooooOOOOOOOOXXXXooooOOOOOOOO....",
"    ....ooooooooooooooooooooooooooooOOOOOOOOXXXXooooOOOOOOOO....",
"    ....ooooooooooooooooooooooooooooOOOOOOOOXXXXooooOOOOOOOO....",
"    ....ooooooooooooooooooooooooooooOOOOOOOOXXXXooooOOOOOOOO....",
"    ....ooooOOOOOOOOXXXXooooooooooooXXXXXXXXooooooooXXXXXXXX....",
"    ....ooooOOOOOOOOXXXXooooooooooooXXXXXXXXooooooooXXXXXXXX....",
"    ....ooooOOOOOOOOXXXXooooooooooooXXXXXXXXooooooooXXXXXXXX....",
"    ....ooooOOOOOOOOXXXXooooooooooooXXXXXXXXooooooooXXXXXXXX....",
"    ....ooooOOOOOOOOXXXXoooooooooooooooooooooooooooooooo....    ",
"    ....ooooOOOOOOOOXXXXoooooooooooooooooooooooooooooooo....    ",
"    ....ooooOOOOOOOOXXXXoooooooooooooooooooooooooooooooo....    ",
"    ....ooooOOOOOOOOXXXXoooooooooooooooooooooooooooooooo....    ",
"        ....XXXXXXXXooooooooooooooooooooOOOOXXXXoooooooo....    ",
"        ....XXXXXXXXooooooooooooooooooooOOOOXXXXoooooooo....    ",
"        ....XXXXXXXXooooooooooooooooooooOOOOXXXXoooooooo....    ",
"        ....XXXXXXXXooooooooooooooooooooOOOOXXXXoooooooo....    ",
"            ....................oooooooooooooooooooo....        ",
"            ....................oooooooooooooooooooo....        ",
"            ....................oooooooooooooooooooo....        ",
"            ....................oooooooooooooooooooo....        ",
"                                ....................            ",
"                                ....................            ",
"                                ....................            ",
"                                ....................            "
};
